<svg xmlns="http://www.w3.org/2000/svg" version="1.1" width="32" height="32" viewBox="0 0 32 32">
<title>edit</title>
<path d="M17.769 6.237c0.122-0.162 0.313-0.266 0.53-0.266s0.408 0.104 0.528 0.265l0.001 0.002 6.935 6.935c0.162 0.122 0.266 0.313 0.266 0.53s-0.104 0.408-0.265 0.528l-0.002 0.001-16.368 16.368-7.614 1.379c-0.079 0.015-0.169 0.024-0.261 0.024-0.418 0-0.794-0.178-1.057-0.463l-0.001-0.001c-0.296-0.265-0.481-0.647-0.481-1.073 0-0.087 0.008-0.172 0.022-0.254l-0.001 0.009 1.399-7.614zM5.518 26.482v-2.998h-2.238l-0.759 3.997 1.998 1.998 3.997-0.739v-2.258zM7.776 21.226c0.139 0.195 0.365 0.32 0.62 0.32s0.48-0.125 0.618-0.318l9.615-9.615c0.195-0.139 0.32-0.365 0.32-0.62s-0.125-0.48-0.318-0.618l-0.002-0.002c-0.139-0.195-0.365-0.32-0.62-0.32s-0.48 0.125-0.618 0.318l-9.615 9.615c-0.195 0.139-0.32 0.365-0.32 0.62s0.125 0.48 0.318 0.618l0.002 0.002zM31.119 8.875l-2.858 2.878c-0.122 0.162-0.313 0.266-0.53 0.266s-0.408-0.104-0.528-0.265l-0.001-0.002-6.935-6.935c-0.171-0.117-0.281-0.31-0.281-0.53s0.11-0.413 0.279-0.528l0.002-0.001 2.858-2.878c0.537-0.543 1.281-0.88 2.105-0.88 0.012 0 0.024 0 0.036 0h-0.002c0.009 0 0.020 0 0.031 0 0.818 0 1.557 0.337 2.087 0.879l3.738 3.738c0.531 0.519 0.861 1.243 0.861 2.044 0 0.033-0.001 0.066-0.002 0.099v-0.005c0.001 0.025 0.001 0.054 0.001 0.083 0 0.798-0.329 1.519-0.86 2.035l-0.001 0.001z" fill="#6e1c6b"/>
</svg>